<mxfile host="www.draw.io" modified="2019-12-05T09:40:45.331Z" agent="Mozilla/5.0 (Macintosh; Intel Mac OS X 10_14_6) AppleWebKit/537.36 (KHTML, like Gecko) Chrome/78.0.3904.108 Safari/537.36" etag="yHzfQbwQmVeUYhLC-U6o" version="12.3.6" type="github" pages="1">
  <diagram id="mVG5cPrxz61uuFOAwVko" name="第 1 页">
    <mxGraphModel dx="946" dy="528" grid="1" gridSize="10" guides="1" tooltips="1" connect="1" arrows="1" fold="1" page="1" pageScale="1" pageWidth="827" pageHeight="1169" math="0" shadow="0">
      <root>
        <mxCell id="0"/>
        <mxCell id="1" parent="0"/>
        <mxCell id="0TAS2D7OrVqpbY27i1qa-12" style="edgeStyle=orthogonalEdgeStyle;rounded=0;orthogonalLoop=1;jettySize=auto;html=1;exitX=0.75;exitY=0;exitDx=0;exitDy=0;entryX=0.5;entryY=1;entryDx=0;entryDy=0;" edge="1" parent="1" source="0TAS2D7OrVqpbY27i1qa-1" target="0TAS2D7OrVqpbY27i1qa-9">
          <mxGeometry relative="1" as="geometry"/>
        </mxCell>
        <mxCell id="0TAS2D7OrVqpbY27i1qa-1" value="" style="rounded=0;whiteSpace=wrap;html=1;" vertex="1" parent="1">
          <mxGeometry x="240" y="130" width="510" height="290" as="geometry"/>
        </mxCell>
        <mxCell id="0TAS2D7OrVqpbY27i1qa-2" value="数据配置" style="rounded=1;whiteSpace=wrap;html=1;" vertex="1" parent="1">
          <mxGeometry x="260" y="150" width="70" height="30" as="geometry"/>
        </mxCell>
        <mxCell id="0TAS2D7OrVqpbY27i1qa-4" value="图表配置" style="rounded=1;whiteSpace=wrap;html=1;" vertex="1" parent="1">
          <mxGeometry x="343" y="150" width="70" height="30" as="geometry"/>
        </mxCell>
        <mxCell id="0TAS2D7OrVqpbY27i1qa-5" value="" style="endArrow=none;html=1;entryX=0.373;entryY=-0.007;entryDx=0;entryDy=0;entryPerimeter=0;exitX=0.373;exitY=1.003;exitDx=0;exitDy=0;exitPerimeter=0;" edge="1" parent="1" source="0TAS2D7OrVqpbY27i1qa-1" target="0TAS2D7OrVqpbY27i1qa-1">
          <mxGeometry width="50" height="50" relative="1" as="geometry">
            <mxPoint x="240" y="490" as="sourcePoint"/>
            <mxPoint x="290" y="440" as="targetPoint"/>
          </mxGeometry>
        </mxCell>
        <mxCell id="0TAS2D7OrVqpbY27i1qa-6" value="指标配置&lt;br&gt;&lt;br&gt;分组配置&lt;br&gt;&lt;br&gt;过滤条件" style="text;html=1;strokeColor=none;fillColor=none;align=left;verticalAlign=middle;whiteSpace=wrap;rounded=0;" vertex="1" parent="1">
          <mxGeometry x="260" y="210" width="90" height="180" as="geometry"/>
        </mxCell>
        <mxCell id="0TAS2D7OrVqpbY27i1qa-8" value="图表" style="ellipse;whiteSpace=wrap;html=1;align=center;" vertex="1" parent="1">
          <mxGeometry x="530" y="235" width="120" height="80" as="geometry"/>
        </mxCell>
        <mxCell id="0TAS2D7OrVqpbY27i1qa-13" style="edgeStyle=orthogonalEdgeStyle;rounded=0;orthogonalLoop=1;jettySize=auto;html=1;exitX=1;exitY=0.5;exitDx=0;exitDy=0;entryX=0.75;entryY=0;entryDx=0;entryDy=0;" edge="1" parent="1" source="0TAS2D7OrVqpbY27i1qa-9" target="0TAS2D7OrVqpbY27i1qa-1">
          <mxGeometry relative="1" as="geometry"/>
        </mxCell>
        <mxCell id="0TAS2D7OrVqpbY27i1qa-9" value="general restful api server" style="rounded=1;whiteSpace=wrap;html=1;align=center;" vertex="1" parent="1">
          <mxGeometry x="450" y="10" width="200" height="60" as="geometry"/>
        </mxCell>
        <mxCell id="0TAS2D7OrVqpbY27i1qa-11" style="edgeStyle=orthogonalEdgeStyle;rounded=0;orthogonalLoop=1;jettySize=auto;html=1;exitX=0.5;exitY=1;exitDx=0;exitDy=0;" edge="1" parent="1" source="0TAS2D7OrVqpbY27i1qa-10" target="0TAS2D7OrVqpbY27i1qa-1">
          <mxGeometry relative="1" as="geometry"/>
        </mxCell>
        <mxCell id="0TAS2D7OrVqpbY27i1qa-10" value="datasrc config" style="rounded=1;whiteSpace=wrap;html=1;align=center;" vertex="1" parent="1">
          <mxGeometry x="240" y="10" width="120" height="60" as="geometry"/>
        </mxCell>
      </root>
    </mxGraphModel>
  </diagram>
</mxfile>
